<svg width="358" height="419" viewBox="0 0 358 419" fill="none" xmlns="http://www.w3.org/2000/svg">
<ellipse cx="185.414" cy="386.424" rx="171.586" ry="31.7273" fill="#E8E8E8" fill-opacity="0.44"/>
<path d="M73.3972 268.58L84.4046 274.407L254.048 281.53L281.891 278.94L295.488 264.695L301.963 262.105C306.717 259.703 310.111 258.71 318.798 258.22C324.527 256.709 331.59 258.892 338.87 263.4C344.345 265.183 348.085 269.349 351.82 276.35C355.409 281.203 356.148 284.501 357 290.595C356.112 298.273 354.91 301.893 351.82 307.43L340.165 321.027L310.38 348.222L293.546 361.172L198.364 397.431L157.572 400.021L79.2246 366.352L59.7998 348.222L45.5549 335.272L24.1876 315.847L8.64768 302.897C5.14514 299.695 3.40757 296.92 1.52523 286.71C0.532274 281.661 0.824503 277.846 3.46772 268.58C4.50244 262.823 6.70069 259.935 11.8852 255.63C16.5973 252.05 19.9735 250.457 28.72 249.155C36.3837 247.89 42.4325 250.683 51.3823 255.63L59.7998 260.162L73.3972 268.58Z" fill="#002E5E" stroke="#002E5E"/>
<path d="M190.594 104.764C185.935 102.463 183.514 98.6782 180.234 94.4038L169.226 95.0513L168.579 65.2665L174.406 40.0142L204.839 16.7044L236.566 43.2517V89.8713L228.796 96.9938C227.15 98.1044 225.737 99.0895 222.321 101.526C220.072 104.127 218.505 105.398 215.199 107.354C212.564 108.607 210.832 109.156 207.429 109.944C205.406 110.438 204.272 110.421 202.249 109.944C197.892 108.868 194.83 106.759 190.594 104.764Z" fill="#FBCC96" stroke="#FBCC96"/>
<path d="M173.759 123.541L184.119 92.4613L219.084 87.2813L248.221 111.886L250.163 143.613L241.098 191.528L179.586 190.233L173.759 175.988V123.541Z" fill="#FBCC96" stroke="#FBCC96"/>
<path d="M143.974 129.369C150.631 125.873 155.331 124.773 165.989 124.836L184.766 117.714C183.38 128.948 182.384 128.569 182.176 133.901C180.932 141.305 180.272 150.187 180.881 154.621C180.936 160.062 181.09 162.562 181.529 166.276C182.664 174.592 183.917 177.495 187.356 179.226H222.969C226.762 172.838 227.444 169.126 230.091 161.743C231.999 152.3 234.718 141.09 233.976 135.843H237.213V124.836L266.998 135.843C265.276 133.465 266.521 133.237 274.768 135.843C278.884 137.268 280.804 138.299 283.833 140.376C287.45 142.402 288.505 143.535 290.308 145.556C293.715 149.651 295.34 152.155 297.43 157.211C299.759 162.745 300.563 165.865 301.315 171.456C301.757 175.764 301.87 178.173 301.963 182.463C303.062 191.198 302.617 196.647 302.61 205.125C302.237 209.61 302.099 212.015 301.963 216.133C301.819 219.233 302.447 220.865 301.963 224.55L301.96 224.699C301.861 230.627 301.804 234.04 300.668 240.09C300.213 250.785 297.285 256.703 294.84 267.285C292.721 270.709 290.97 272.667 285.128 276.35C279.863 279.498 276.882 280.377 271.531 280.882L123.254 258.22V183.111C122.263 175.615 122.302 170.751 123.254 161.096C123.553 156.291 124.769 152.059 128.434 142.318C131.015 137.182 134.499 134.349 143.974 129.369Z" fill="#E7F9FF"/>
<path d="M145.917 139.728C153.549 133.399 156.807 129.855 160.162 123.541C163.715 115.554 164.51 110.717 164.046 101.526C164.174 90.7453 163.872 84.4967 162.751 73.0365C161.956 63.3983 162.185 58.0096 164.046 48.4316C165.052 38.7338 166.339 33.493 169.874 24.4743C173.367 16.4235 176.875 12.6457 185.414 6.99195C190.285 4.35172 193.518 3.31898 199.659 1.81199C206.888 0.770589 210.991 0.688878 218.436 1.81199C223.754 3.12519 226.402 4.32347 230.738 6.99195C234.762 10.3715 236.751 12.354 239.803 16.0569C243.744 20.7858 245.479 23.4918 248.221 28.3593C252.124 37.0355 253.806 41.8533 255.991 50.3741C257.809 56.3275 258.275 59.5709 258.581 65.2665C259.783 71.8734 259.876 74.9789 260.523 81.4539C261.171 87.9288 261.818 98.9362 261.818 98.9362C261.823 106.61 262.143 110.661 263.761 117.066C265.928 124.818 266.994 128.732 268.941 135.843C271.908 141.772 273.431 143.674 276.063 146.203C280.735 151.233 283.675 152.394 289.013 153.973C284.96 155.069 282.509 155.292 277.358 153.973C272.308 153.215 269.715 152.065 265.703 148.146C266.421 154.436 267.297 157.531 269.588 162.391C263.923 161.816 260.773 161.066 255.343 156.563C250.177 153.297 247.933 150.423 244.983 143.613C243.437 147.381 242.915 149.585 243.688 153.973C244.478 158.411 244.61 159.088 244.983 161.096C240.292 156.427 238.074 153.283 235.271 146.203C232.957 140.449 230.634 129.659 230.707 129.332C230.16 128.274 224.891 116.596 227.501 106.706C228.268 100.805 228.958 97.5412 230.738 91.8138C233.359 82.6579 233.84 77.1943 233.976 67.209C233.567 56.7492 232.475 51.0446 228.148 41.3092C224.268 34.9289 221.216 32.1624 214.551 28.3593C208.319 27.2259 205.033 27.2821 199.659 29.0068C192.859 31.3283 189.775 33.4968 185.414 38.7192C180.833 43.7909 179.013 46.9174 176.996 52.9641C174.65 58.9039 173.988 62.3123 173.759 68.504C173.814 75.9825 174.502 79.6827 176.996 85.3389C179.299 92.783 181.392 95.4251 185.414 99.5837C187.767 107.218 188.037 111.329 186.709 118.361C184.557 124.118 182.937 127.182 178.291 131.958C177.503 134.263 175.657 138.065 170.521 148.146C169.027 150.925 168.182 152.34 166.636 153.973C167.142 150.066 166.881 147.776 165.989 143.613C163.797 146.985 162.245 148.551 158.867 150.736C155.762 153.353 154.073 154.193 151.097 155.268C154.975 151.418 156.754 148.93 158.867 143.613C160.325 140.355 160.863 138.669 161.457 135.843C158.757 137.406 157.197 137.969 154.334 138.433C150.989 139.359 149.151 139.604 145.917 139.728Z" fill="#724411" stroke="#724411"/>
<path d="M149.802 400.021C144.104 399.503 142.679 397.647 142.679 396.784L137.499 383.834L173.759 366.352L191.241 350.164L203.544 338.509C208.508 333.329 220.897 320.898 230.738 312.61C240.58 304.322 244.336 303.976 244.983 304.84L281.243 283.472L314.913 289.947L325.273 324.912L307.143 340.452L293.545 350.164L283.833 355.344L281.243 357.287L184.119 387.072L171.816 395.489C166.852 397.216 155.5 400.539 149.802 400.021Z" fill="#EFB882" stroke="#EFB882"/>
<path d="M34.5475 278.94L23.5401 308.077L36.49 321.027C51.3592 331.952 56.7904 336.648 70.1597 344.337L94.7645 355.992C110.75 361.845 120.815 366.821 140.089 370.884C146.748 375.506 150.959 377.801 159.514 381.244C167.651 386.459 172.464 387.719 178.291 392.252C184.119 396.784 188.37 397.331 191.889 401.316C198.893 402.569 203.226 402.661 211.961 401.316L224.264 392.252L217.789 370.884C208.432 370.127 203.074 369.813 191.889 370.884C186.385 368.296 181.453 365.578 168.579 357.934C158.626 350.354 152.38 347.438 143.327 337.862C132.812 329.352 126.925 322.911 112.247 311.962L83.7571 289.3C76.0321 282.359 71.8183 278.35 64.9798 270.522L34.5475 278.94Z" fill="#FBCC96" stroke="#FBCC96"/>
<path d="M10.5902 301.602L27.425 312.61C34.234 289.423 41.8946 279.293 66.2747 269.227L50.7349 258.22C31.3997 262.995 22.5166 272.184 10.5902 301.602Z" fill="#81B2E1"/>
<path d="M321.388 330.092C308.939 301.552 299.575 291.985 279.948 282.825L295.488 269.875C318.052 278.867 326.77 288.964 336.928 313.905C332.796 321.721 329.069 325.015 321.388 330.092Z" fill="#81B2E1"/>
<path d="M10.5902 301.602L27.425 312.61C34.234 289.423 41.8946 279.293 66.2747 269.227L50.7349 258.22C31.3997 262.995 22.5166 272.184 10.5902 301.602Z" stroke="#81B2E1"/>
<path d="M321.388 330.092C308.939 301.552 299.575 291.985 279.948 282.825L295.488 269.875C318.052 278.867 326.77 288.964 336.928 313.905C332.796 321.721 329.069 325.015 321.388 330.092Z" stroke="#81B2E1"/>
<path d="M68.8647 387.719C72.4723 395.324 75.292 397.436 80.5196 400.669H151.097C154.152 399.173 155.649 398.118 156.924 394.842C158.026 393.051 158.488 391.788 158.219 387.719C159.086 380.989 158.867 382.539 153.039 378.007C147.212 373.474 133.614 371.532 133.614 371.532L115.484 366.999L98.002 360.524C90.8859 358.483 86.9717 357.673 80.5196 358.582C74.1122 361.122 71.4885 363.333 68.8647 368.942C66.8871 377.758 67.2968 381.562 68.8647 387.719Z" fill="white"/>
<path d="M211.961 370.237C204.432 380.056 205.512 387.55 211.961 402.611L271.531 405.849H287.718C294.128 402.539 296.763 400.546 300.02 396.784C302.875 394.689 303.533 393.031 303.905 389.662C304.726 385.425 304.822 380.743 303.905 374.769C304.099 370.416 301.086 367.869 296.783 363.114C293.962 358.574 288.798 356.93 280.596 355.344C272.338 354.632 268.232 355.21 261.818 357.934L248.868 363.114C232.729 366.586 224.583 368.171 211.961 370.237Z" fill="white"/>
<path d="M68.8647 387.719C72.4723 395.324 75.292 397.436 80.5196 400.669H151.097C154.152 399.173 155.649 398.118 156.924 394.842C158.026 393.051 158.488 391.788 158.219 387.719C159.086 380.989 158.867 382.539 153.039 378.007C147.212 373.474 133.614 371.532 133.614 371.532L115.484 366.999L98.002 360.524C90.8859 358.483 86.9717 357.673 80.5196 358.582C74.1122 361.122 71.4885 363.333 68.8647 368.942C66.8871 377.758 67.2968 381.562 68.8647 387.719Z" stroke="#FEFEFE"/>
<path d="M211.961 370.237C204.432 380.056 205.512 387.55 211.961 402.611L271.531 405.849H287.718C294.128 402.539 296.763 400.546 300.02 396.784C302.875 394.689 303.533 393.031 303.905 389.662C304.726 385.425 304.822 380.743 303.905 374.769C304.099 370.416 301.086 367.869 296.783 363.114C293.962 358.574 288.798 356.93 280.596 355.344C272.338 354.632 268.232 355.21 261.818 357.934L248.868 363.114C232.729 366.586 224.583 368.171 211.961 370.237Z" stroke="#FEFEFE"/>
<rect x="81.6671" y="176.488" width="194.544" height="118.139" rx="5.5" fill="#E0E0E0" stroke="#B4B4B4"/>
<rect x="88.1421" y="294.332" width="181.594" height="9.35992" rx="1.5" fill="#B3B3B3" stroke="#9F9F9F"/>
</svg>
