<svg width="1131" height="1316" viewBox="0 0 1131 1316" fill="none" xmlns="http://www.w3.org/2000/svg">
<path d="M723.507 74.8354C842.125 -3.20795 927.417 -20.0604 1131 23.5779L1128.92 1316L1126.77 1315.86C1030.41 1309.36 975.719 1305.67 885.673 1253.76C796.949 1223.79 748.782 1199.08 648.662 1226.3C606.184 1242.27 581.649 1251.31 498.971 1272.06C405.552 1284.68 353.086 1291.28 253.643 1272.06C168.134 1243.88 115.396 1215.79 0 1110.97V532.492C68.6751 552.91 108.929 561.02 185.035 567.274C299.508 576.307 390.488 541.302 419.967 512.355C487.21 457.325 528.868 399.908 580.053 285.358C615.083 185.212 646.407 139.086 723.507 74.8354Z" fill="url(#paint0_linear)"/>
<defs>
<linearGradient id="paint0_linear" x1="1131" y1="22.2195" x2="-10.7207" y2="1103.19" gradientUnits="userSpaceOnUse">
<stop stop-color="#5B86E5"/>
<stop offset="1" stop-color="#36D1DC"/>
</linearGradient>
</defs>
</svg>
